<svg width="274" height="124" viewBox="0 0 274 124" fill="none" xmlns="http://www.w3.org/2000/svg">
<g clip-path="url(#clip0_1096_7735)">
<path fill-rule="evenodd" clip-rule="evenodd" d="M43.5696 71.8591C35.9605 89.182 28.9686 107.038 23.7165 121.534C23.0879 123.269 21.1718 124.166 19.4368 123.537C17.7019 122.909 16.805 120.992 17.4336 119.258C22.5023 105.268 29.2058 88.0972 36.5516 71.2288C25.042 70.1194 12.8579 68.5756 0 66.5214L0.298813 59.8884C12.8814 59.0266 29.4169 56.7706 44.9635 52.712C48.5251 45.2232 52.1453 38.0779 55.7254 31.6224C62.738 18.9776 69.8782 8.44306 76.4026 3.41358C79.6525 0.908035 83.5456 -0.835308 87.5165 0.41455C91.4259 1.64501 93.9942 5.34574 95.7362 10.0956C99.4398 20.1959 97.2821 28.9746 91.3932 36.1709C85.6795 43.1542 76.5473 48.567 66.2787 52.7639C61.06 54.8969 55.4509 56.7542 49.6876 58.3588C48.6024 60.6755 47.5233 63.022 46.4533 65.3879C75.565 67.6763 99.9188 67.0971 119.506 65.0773C148.631 62.074 167.002 55.9092 174.841 51.4133C176.442 50.4952 178.484 51.0486 179.401 52.6494C180.32 54.2501 179.767 56.2921 178.166 57.2102C169.174 62.367 149.751 68.6765 120.192 71.7246C99.6477 73.8432 74.1015 74.3978 43.5696 71.8591ZM39.3967 64.7849C40.0406 63.347 40.6883 61.9146 41.3392 60.49C36.4013 61.6436 31.434 62.6254 26.5788 63.4495C30.9446 63.9556 35.2173 64.3994 39.3967 64.7849ZM53.5824 50.2327C57.0982 49.1194 60.5087 47.9031 63.7504 46.5781C73.6166 42.5454 81.5437 37.6558 86.2216 31.939C90.7249 26.4353 92.2924 20.1162 89.4619 12.3961C87.9368 8.23583 86.3835 7.0638 85.5103 6.78892C84.6987 6.53345 83.1468 6.65218 80.4827 8.70613C75.1774 12.7957 68.6091 22.1699 61.5696 34.8634C58.92 39.641 56.2435 44.8132 53.5824 50.2327Z" fill="#F4EEE8"/>
<path d="M67.794 117.216C67.5619 117.666 67.268 118.098 66.9122 118.516C66.5719 118.934 66.1774 119.305 65.7288 119.63C65.2957 119.939 64.8316 120.195 64.3366 120.396C63.8416 120.581 63.3312 120.674 62.8052 120.674C61.9389 120.674 61.1809 120.512 60.5312 120.186C59.897 119.862 59.3556 119.429 58.907 118.887C58.4738 118.33 58.149 117.696 57.9324 116.985C57.7159 116.273 57.6076 115.523 57.6076 114.734V105.754C57.391 106.744 57.1435 107.812 56.865 108.956C56.5866 110.085 56.2463 111.215 55.8441 112.344C55.4419 113.458 54.9701 114.533 54.4287 115.569C53.8873 116.605 53.2453 117.526 52.5028 118.33C51.7758 119.119 50.9404 119.754 49.9968 120.233C49.0532 120.697 47.9781 120.929 46.7715 120.929C45.3019 120.929 43.9871 120.65 42.8269 120.094C41.6667 119.537 40.6767 118.771 39.8568 117.797C39.0524 116.822 38.4337 115.67 38.0006 114.339C37.5829 112.994 37.374 111.54 37.374 109.977C37.374 108.121 37.668 106.264 38.2558 104.408C38.8436 102.537 39.648 100.742 40.6689 99.0247C41.7054 97.308 42.9274 95.7146 44.3351 94.2452C45.7583 92.7757 47.3052 91.4993 48.9758 90.4168C50.6465 89.3334 52.4022 88.4907 54.2431 87.887C56.0994 87.2841 57.9711 86.9975 59.8583 87.0287H60.1368V88.0726C58.5125 88.1506 56.9501 88.5063 55.4497 89.1404C53.9491 89.7589 52.5415 90.5786 51.2266 91.5996C49.9272 92.6057 48.7361 93.7729 47.6533 95.1035C46.5704 96.4341 45.6422 97.8493 44.8688 99.35C44.1108 100.851 43.5153 102.397 43.0821 103.991C42.6644 105.584 42.4556 107.154 42.4556 108.701C42.4556 109.304 42.4943 109.954 42.5716 110.65C42.649 111.33 42.7805 112.019 42.9661 112.715C43.1518 113.396 43.3915 114.053 43.6854 114.687C43.9794 115.306 44.3428 115.863 44.776 116.358C45.2246 116.838 45.7428 117.225 46.3306 117.519C46.9185 117.797 47.5913 117.936 48.3494 117.936C49.262 117.936 50.0896 117.657 50.8321 117.101C51.5746 116.544 52.2476 115.794 52.8509 114.85C53.4542 113.906 53.9878 112.808 54.4519 111.555C54.9315 110.302 55.3491 108.98 55.7049 107.587C56.0607 106.195 56.3546 104.779 56.5866 103.341C56.8342 101.887 57.0275 100.495 57.1667 99.1643C57.3214 97.8337 57.4297 96.6041 57.4916 95.4748C57.5689 94.3298 57.6076 93.3712 57.6076 92.5975L62.4107 90.8341V115.5C62.4107 115.809 62.4416 116.118 62.5036 116.428C62.5654 116.737 62.6737 117.023 62.8284 117.286C62.9831 117.533 63.1764 117.735 63.4085 117.89C63.656 118.044 63.9576 118.121 64.3134 118.121C64.8548 118.121 65.3653 117.959 65.8449 117.634C66.3244 117.309 66.7189 116.946 67.0282 116.544L67.794 117.216Z" fill="white"/>
<path d="M78.2356 117.681C78.05 118.083 77.8102 118.462 77.5161 118.818C77.2377 119.174 76.9206 119.491 76.565 119.769C76.2093 120.048 75.815 120.264 75.3814 120.419C74.9641 120.589 74.5312 120.674 74.0823 120.674C72.8757 120.674 71.994 120.342 71.4371 119.676C70.8957 118.996 70.625 118.076 70.625 116.915V88.6066L74.8943 87.1216V117.031C74.8943 117.34 74.9641 117.626 75.103 117.89C75.2425 118.137 75.4898 118.261 75.8455 118.261C76.2019 118.261 76.5345 118.122 76.8434 117.843C77.1686 117.549 77.4233 117.263 77.6089 116.985L78.2356 117.681Z" fill="white"/>
<path d="M89.142 117.681C88.9564 118.083 88.7166 118.462 88.4225 118.818C88.1441 119.174 87.827 119.491 87.4714 119.769C87.1157 120.048 86.7207 120.264 86.2878 120.419C85.8698 120.589 85.4369 120.674 84.9884 120.674C83.7818 120.674 82.8997 120.342 82.3428 119.676C81.8015 118.996 81.5312 118.076 81.5312 116.915V88.6066L85.8007 87.1216V117.031C85.8007 117.34 85.8698 117.626 86.0094 117.89C86.1482 118.137 86.3962 118.261 86.7519 118.261C87.1075 118.261 87.4402 118.122 87.7498 117.843C88.0743 117.549 88.3297 117.263 88.5153 116.985L89.142 117.681Z" fill="white"/>
<path d="M99.096 120.929C97.951 120.929 96.8758 120.729 95.8705 120.326C94.8807 119.908 94.0142 119.336 93.2717 118.609C92.5447 117.882 91.9648 117.031 91.5312 116.057C91.1139 115.067 90.9053 113.992 90.9053 112.831C90.9053 111.516 91.1213 110.287 91.555 109.142C91.9879 107.982 92.5834 106.938 93.3415 106.01C94.1152 105.082 95.0195 104.277 96.0561 103.596C97.1082 102.916 98.245 102.382 99.4672 101.995L100.14 102.807C99.4442 103.318 98.7945 103.905 98.1908 104.571C97.5879 105.22 97.0615 105.932 96.613 106.705C96.1645 107.463 95.8088 108.268 95.546 109.119C95.2831 109.954 95.151 110.812 95.151 111.694C95.151 112.437 95.2594 113.218 95.4762 114.038C95.693 114.857 96.0175 115.608 96.4504 116.288C96.884 116.969 97.4253 117.533 98.075 117.983C98.7403 118.416 99.5058 118.632 100.372 118.632C101.145 118.632 101.811 118.493 102.367 118.214C102.94 117.936 103.411 117.557 103.783 117.078C104.154 116.598 104.432 116.041 104.618 115.407C104.804 114.757 104.896 114.076 104.896 113.365C104.896 112.53 104.735 111.679 104.409 110.812C104.085 109.931 103.636 109.119 103.064 108.376C102.507 107.634 101.849 107.015 101.091 106.52C100.334 106.024 99.5214 105.739 98.6549 105.661C99.1962 105.043 99.7917 104.47 100.441 103.944C101.091 103.418 101.749 102.916 102.414 102.436C103.311 102.73 104.101 103.163 104.781 103.735C105.477 104.308 106.057 104.965 106.521 105.707C107.001 106.45 107.364 107.262 107.612 108.144C107.859 109.01 107.983 109.892 107.983 110.789C107.983 112.011 107.766 113.225 107.333 114.432C106.915 115.639 106.312 116.729 105.523 117.704C104.75 118.663 103.814 119.444 102.716 120.048C101.633 120.636 100.427 120.929 99.096 120.929Z" fill="white"/>
<path d="M134.11 105.336C134.11 105.816 134.048 106.35 133.924 106.938C133.816 107.51 133.654 108.02 133.437 108.469L128.031 120.071C127.938 120.241 127.807 120.349 127.636 120.396C127.482 120.457 127.312 120.489 127.126 120.489C126.909 120.489 126.7 120.45 126.499 120.372C126.298 120.295 126.159 120.148 126.082 119.932L122.462 107.146L119.237 119.769C119.113 120.032 118.935 120.233 118.703 120.372C118.487 120.512 118.239 120.581 117.96 120.581C117.759 120.581 117.566 120.543 117.38 120.465C117.21 120.388 117.102 120.241 117.055 120.025L112.971 106.984C112.91 106.798 112.825 106.605 112.717 106.404C112.624 106.187 112.5 105.994 112.345 105.824C112.206 105.638 112.043 105.491 111.858 105.383C111.688 105.259 111.486 105.197 111.255 105.197C110.945 105.197 110.659 105.282 110.396 105.453C110.148 105.623 109.924 105.8 109.723 105.986L109.259 105.383C109.491 104.95 109.785 104.548 110.141 104.176C110.497 103.79 110.891 103.449 111.324 103.155C111.757 102.861 112.214 102.63 112.693 102.459C113.188 102.289 113.691 102.204 114.202 102.204C114.635 102.204 114.998 102.328 115.292 102.576C115.586 102.823 115.834 103.124 116.034 103.48C116.235 103.836 116.398 104.215 116.522 104.617C116.661 105.019 116.777 105.383 116.87 105.707C117.334 107.162 117.79 108.623 118.239 110.093C118.703 111.563 119.159 113.017 119.608 114.456L121.905 105.151L121.325 103.294L125.223 101.995L129.028 115.5L131.21 110.511C131.303 110.279 131.38 109.985 131.441 109.629C131.504 109.258 131.534 108.949 131.534 108.701C131.534 107.773 131.295 106.976 130.815 106.311C130.351 105.646 129.725 105.112 128.935 104.71L131.581 101.044C132.448 101.477 133.082 102.065 133.483 102.807C133.901 103.534 134.11 104.378 134.11 105.336Z" fill="white"/>
<path d="M153.207 115.871C152.666 116.567 152.07 117.216 151.421 117.82C150.786 118.423 150.09 118.949 149.332 119.398C148.589 119.846 147.801 120.202 146.965 120.465C146.13 120.728 145.264 120.86 144.367 120.86C143.222 120.86 142.17 120.659 141.211 120.256C140.252 119.839 139.424 119.274 138.728 118.562C138.031 117.836 137.49 116.985 137.103 116.01C136.717 115.02 136.523 113.96 136.523 112.831C136.523 111.903 136.655 110.99 136.918 110.093C137.181 109.196 137.553 108.353 138.031 107.564C138.511 106.775 139.076 106.048 139.726 105.383C140.391 104.702 141.118 104.122 141.907 103.642C142.696 103.163 143.531 102.791 144.413 102.529C145.295 102.25 146.199 102.111 147.127 102.111C147.777 102.111 148.388 102.189 148.961 102.343C149.549 102.497 150.067 102.745 150.515 103.086C150.964 103.411 151.32 103.836 151.582 104.362C151.846 104.872 151.977 105.483 151.977 106.195C151.977 106.782 151.799 107.402 151.444 108.051C151.103 108.701 150.647 109.351 150.074 110.001C149.517 110.65 148.883 111.292 148.172 111.926C147.46 112.545 146.733 113.125 145.991 113.666C145.264 114.192 144.56 114.656 143.879 115.059C143.199 115.461 142.603 115.77 142.092 115.987C142.665 116.698 143.33 117.279 144.088 117.727C144.846 118.176 145.65 118.4 146.501 118.4C147.043 118.4 147.591 118.3 148.148 118.098C148.705 117.882 149.239 117.611 149.75 117.286C150.276 116.962 150.771 116.605 151.235 116.219C151.715 115.832 152.139 115.468 152.511 115.128L153.207 115.871ZM147.615 107.054C147.615 106.698 147.553 106.357 147.43 106.033C147.321 105.707 147.158 105.429 146.942 105.197C146.726 104.95 146.463 104.756 146.153 104.617C145.859 104.462 145.519 104.385 145.132 104.385C144.436 104.385 143.794 104.632 143.206 105.127C142.619 105.607 142.108 106.203 141.675 106.914C141.257 107.626 140.924 108.384 140.677 109.188C140.445 109.977 140.329 110.673 140.329 111.276C140.329 111.864 140.422 112.468 140.607 113.086C140.793 113.705 141.048 114.3 141.373 114.873C141.992 114.533 142.665 114.061 143.392 113.458C144.119 112.854 144.792 112.197 145.411 111.486C146.045 110.758 146.57 110.008 146.988 109.234C147.406 108.461 147.615 107.734 147.615 107.054Z" fill="white"/>
<path d="M174.855 117.635C174.67 118.037 174.43 118.416 174.136 118.771C173.843 119.127 173.517 119.444 173.162 119.722C172.806 120.001 172.412 120.225 171.978 120.396C171.561 120.55 171.127 120.628 170.679 120.628C169.457 120.628 168.567 120.295 168.01 119.63C167.469 118.949 167.199 118.029 167.199 116.869V116.451C166.936 116.977 166.633 117.503 166.293 118.029C165.953 118.554 165.558 119.027 165.11 119.444C164.677 119.862 164.182 120.202 163.625 120.465C163.083 120.729 162.472 120.86 161.792 120.86C160.756 120.86 159.842 120.659 159.054 120.256C158.28 119.839 157.63 119.29 157.105 118.609C156.579 117.913 156.177 117.109 155.898 116.196C155.635 115.283 155.504 114.324 155.504 113.318C155.504 112.019 155.705 110.712 156.107 109.397C156.509 108.082 157.097 106.891 157.87 105.824C158.644 104.756 159.595 103.89 160.725 103.225C161.854 102.544 163.145 102.204 164.6 102.204C165.497 102.204 166.363 102.42 167.199 102.854V88.6066L171.491 87.1216V116.985C171.491 117.294 171.561 117.58 171.7 117.843C171.855 118.09 172.102 118.214 172.442 118.214C172.798 118.214 173.13 118.076 173.44 117.797C173.75 117.503 173.997 117.209 174.183 116.915L174.855 117.635ZM167.199 110.65V105.707C166.843 105.352 166.44 105.058 165.992 104.826C165.558 104.594 165.079 104.478 164.553 104.478C163.64 104.478 162.867 104.725 162.233 105.22C161.598 105.716 161.08 106.334 160.678 107.077C160.276 107.819 159.982 108.623 159.796 109.49C159.611 110.341 159.518 111.137 159.518 111.88C159.518 112.468 159.572 113.133 159.681 113.875C159.804 114.603 160.005 115.291 160.283 115.941C160.578 116.575 160.956 117.116 161.42 117.565C161.9 117.998 162.495 118.214 163.208 118.214C163.78 118.214 164.274 118.09 164.693 117.843C165.125 117.58 165.489 117.248 165.783 116.845C166.077 116.428 166.316 115.956 166.502 115.43C166.688 114.889 166.827 114.339 166.92 113.782C167.028 113.225 167.098 112.677 167.129 112.135C167.175 111.579 167.199 111.083 167.199 110.65Z" fill="white"/>
<path d="M210.079 86.333C209.583 87.0755 208.995 87.7712 208.315 88.4209C207.634 89.0706 206.884 89.6431 206.064 90.1384C205.26 90.6329 204.409 91.0279 203.512 91.3212C202.615 91.5996 201.717 91.7392 200.82 91.7392L200.286 91.7853C199.699 92.5278 199.25 93.2473 198.941 93.9438C198.631 94.6395 198.477 95.4592 198.477 96.403V111.23C198.477 113.288 198.036 115.12 197.154 116.729C196.288 118.323 195.004 119.699 193.302 120.86L192.537 119.978C192.8 119.684 193.008 119.351 193.163 118.98C193.318 118.594 193.434 118.199 193.511 117.797C193.588 117.395 193.635 116.992 193.651 116.59C193.681 116.172 193.697 115.778 193.697 115.407V99.0946C193.697 98.3677 193.844 97.6638 194.138 96.9829C194.447 96.2871 194.833 95.6293 195.297 95.0108C195.762 94.3922 196.272 93.8123 196.829 93.2703C197.402 92.729 197.95 92.2345 198.477 91.7853L190.796 91.7392C190.208 91.7392 189.683 91.8009 189.219 91.9249C188.77 92.0333 188.352 92.1951 187.965 92.412C187.579 92.6288 187.208 92.899 186.851 93.2243C186.496 93.5487 186.133 93.9282 185.761 94.3611L185.088 93.6416C185.599 92.9458 186.171 92.2107 186.805 91.4378C187.455 90.6641 188.151 89.9602 188.893 89.3261C189.651 88.692 190.456 88.1655 191.306 87.7482C192.173 87.3302 193.078 87.1215 194.022 87.1215H204.046C204.447 87.1215 204.897 87.0985 205.391 87.0517C205.902 87.0057 206.412 86.9285 206.923 86.8201C207.433 86.7117 207.913 86.5728 208.361 86.402C208.825 86.2164 209.212 85.9847 209.522 85.7063L210.079 86.333Z" fill="white"/>
<path d="M226.669 115.871C226.128 116.567 225.532 117.216 224.883 117.82C224.249 118.423 223.553 118.949 222.795 119.398C222.052 119.846 221.263 120.202 220.428 120.465C219.592 120.728 218.726 120.86 217.829 120.86C216.685 120.86 215.632 120.659 214.673 120.256C213.715 119.839 212.887 119.274 212.19 118.562C211.494 117.836 210.953 116.985 210.566 116.01C210.179 115.02 209.986 113.96 209.986 112.831C209.986 111.903 210.118 110.99 210.381 110.093C210.643 109.196 211.015 108.353 211.494 107.564C211.974 106.775 212.538 106.048 213.188 105.383C213.853 104.702 214.58 104.122 215.37 103.642C216.158 103.163 216.993 102.791 217.876 102.529C218.757 102.25 219.662 102.111 220.59 102.111C221.24 102.111 221.851 102.189 222.423 102.343C223.011 102.497 223.529 102.745 223.978 103.086C224.427 103.411 224.782 103.836 225.045 104.362C225.308 104.872 225.44 105.483 225.44 106.195C225.44 106.782 225.262 107.402 224.906 108.051C224.566 108.701 224.11 109.351 223.537 110.001C222.98 110.65 222.346 111.292 221.634 111.926C220.923 112.545 220.196 113.125 219.453 113.666C218.726 114.192 218.023 114.656 217.342 115.059C216.661 115.461 216.065 115.77 215.555 115.987C216.128 116.698 216.792 117.279 217.55 117.727C218.308 118.176 219.113 118.4 219.964 118.4C220.505 118.4 221.054 118.3 221.611 118.098C222.168 117.882 222.702 117.611 223.212 117.286C223.738 116.962 224.233 116.605 224.697 116.219C225.177 115.832 225.602 115.468 225.973 115.128L226.669 115.871ZM221.077 107.054C221.077 106.698 221.016 106.357 220.892 106.033C220.783 105.707 220.621 105.429 220.405 105.197C220.188 104.95 219.925 104.756 219.615 104.617C219.322 104.462 218.981 104.385 218.594 104.385C217.899 104.385 217.256 104.632 216.669 105.127C216.081 105.607 215.571 106.203 215.137 106.914C214.72 107.626 214.387 108.384 214.139 109.188C213.908 109.977 213.792 110.673 213.792 111.276C213.792 111.864 213.885 112.468 214.07 113.086C214.256 113.705 214.51 114.3 214.836 114.873C215.454 114.533 216.128 114.061 216.855 113.458C217.582 112.854 218.254 112.197 218.873 111.486C219.508 110.758 220.033 110.008 220.451 109.234C220.869 108.461 221.077 107.734 221.077 107.054Z" fill="white"/>
<path d="M246.787 102.9L245.046 106.938C244.706 106.659 244.327 106.419 243.909 106.218C243.508 106.001 243.09 105.893 242.657 105.893C242.316 105.893 241.991 105.963 241.682 106.102C241.388 106.241 241.117 106.427 240.869 106.659C240.622 106.891 240.405 107.154 240.22 107.448C240.034 107.726 239.88 108.005 239.756 108.283L239.292 109.605C239.617 110.286 239.934 110.936 240.243 111.555C240.506 112.081 240.777 112.614 241.055 113.156C241.333 113.682 241.566 114.099 241.752 114.409C242.046 114.857 242.34 115.321 242.633 115.801C242.927 116.265 243.252 116.691 243.608 117.077C243.762 117.247 243.948 117.363 244.165 117.426C244.396 117.472 244.606 117.495 244.791 117.495C245.085 117.495 245.364 117.456 245.627 117.379C245.89 117.302 246.137 117.201 246.369 117.077L246.949 117.82C246.732 118.16 246.469 118.501 246.16 118.841C245.851 119.181 245.51 119.491 245.139 119.769C244.783 120.047 244.396 120.272 243.979 120.442C243.577 120.627 243.167 120.72 242.749 120.72C242.378 120.72 242.046 120.659 241.752 120.535C241.473 120.426 241.218 120.279 240.986 120.094C240.754 119.893 240.538 119.661 240.336 119.398C240.135 119.135 239.926 118.864 239.71 118.585C239.54 118.323 239.354 118.006 239.153 117.634C238.967 117.247 238.774 116.853 238.573 116.451C238.372 116.048 238.17 115.662 237.969 115.291C237.768 114.904 237.575 114.579 237.389 114.316C237.312 114.579 237.242 114.842 237.181 115.105C237.118 115.321 237.049 115.546 236.971 115.778C236.894 116.01 236.825 116.188 236.763 116.312C236.531 116.806 236.237 117.317 235.881 117.843C235.526 118.369 235.115 118.848 234.651 119.282C234.202 119.699 233.708 120.047 233.166 120.326C232.625 120.589 232.052 120.72 231.449 120.72C230.908 120.72 230.381 120.612 229.871 120.396C229.36 120.195 228.889 119.923 228.456 119.583L229.917 115.731C230.413 116.041 230.954 116.319 231.542 116.567C232.13 116.799 232.717 116.915 233.305 116.915C233.491 116.915 233.684 116.899 233.885 116.869C234.087 116.822 234.28 116.76 234.465 116.683C234.666 116.59 234.845 116.482 234.999 116.358C235.154 116.219 235.27 116.056 235.347 115.871C235.456 115.67 235.572 115.407 235.696 115.082C235.819 114.757 235.943 114.432 236.067 114.107C236.206 113.736 236.345 113.342 236.484 112.924L232.122 105.94C231.921 105.707 231.673 105.522 231.379 105.383C231.101 105.228 230.807 105.15 230.498 105.15C230.235 105.15 229.987 105.205 229.755 105.313C229.523 105.406 229.299 105.537 229.082 105.707L228.456 104.896C228.672 104.57 228.928 104.253 229.222 103.944C229.531 103.619 229.864 103.333 230.22 103.085C230.575 102.823 230.954 102.614 231.356 102.459C231.759 102.289 232.169 102.204 232.586 102.204C233.097 102.204 233.568 102.336 234.001 102.598C234.435 102.846 234.836 103.155 235.208 103.527C235.579 103.898 235.92 104.3 236.229 104.733C236.538 105.166 236.817 105.568 237.064 105.94C237.188 106.11 237.319 106.327 237.459 106.589C237.613 106.837 237.761 107.085 237.899 107.332C238.07 107.61 238.232 107.912 238.387 108.237C238.542 107.866 238.704 107.495 238.874 107.123C239.013 106.814 239.153 106.497 239.292 106.171C239.447 105.831 239.586 105.537 239.71 105.29C239.941 104.857 240.205 104.455 240.498 104.083C240.792 103.712 241.117 103.387 241.473 103.108C241.844 102.83 242.247 102.614 242.68 102.459C243.113 102.289 243.585 102.204 244.095 102.204C244.575 102.204 245.039 102.266 245.487 102.39C245.936 102.513 246.369 102.683 246.787 102.9Z" fill="white"/>
<path d="M258.713 117.68C258.358 118.438 257.947 119.018 257.483 119.421C257.019 119.823 256.563 120.117 256.114 120.303C255.604 120.519 255.078 120.643 254.537 120.674C253.84 120.674 253.268 120.566 252.819 120.349C252.386 120.132 252.038 119.846 251.775 119.491C251.528 119.135 251.35 118.733 251.241 118.284C251.149 117.836 251.103 117.379 251.103 116.915V104.756H248.643L249.641 102.436H251.103V94.2221L255.348 92.7371V102.436H259.757L258.806 104.756H255.348V117.031C255.348 117.402 255.434 117.696 255.604 117.913C255.774 118.13 255.99 118.245 256.253 118.261C256.516 118.261 256.81 118.16 257.135 117.959C257.46 117.758 257.777 117.433 258.087 116.985L258.713 117.68Z" fill="white"/>
<path d="M273.007 113.992C273.007 114.95 272.829 115.848 272.473 116.683C272.118 117.519 271.631 118.245 271.011 118.864C270.408 119.483 269.681 119.97 268.831 120.326C267.995 120.682 267.09 120.86 266.115 120.86C265.698 120.86 265.241 120.821 264.747 120.743C264.267 120.666 263.787 120.55 263.308 120.396C262.828 120.241 262.372 120.048 261.939 119.815C261.521 119.583 261.173 119.305 260.895 118.98L263.633 115.407C263.819 115.701 264.043 116.025 264.306 116.381C264.584 116.722 264.886 117.039 265.211 117.333C265.551 117.626 265.906 117.874 266.278 118.075C266.665 118.261 267.051 118.354 267.438 118.354C267.887 118.354 268.304 118.276 268.691 118.121C269.093 117.967 269.442 117.75 269.735 117.472C270.029 117.178 270.261 116.838 270.431 116.451C270.601 116.064 270.687 115.639 270.687 115.174C270.687 114.556 270.47 113.992 270.037 113.481C269.619 112.955 269.116 112.452 268.528 111.973C267.957 111.477 267.353 110.975 266.719 110.465C266.1 109.938 265.598 109.366 265.211 108.747L262.798 112.274L261.892 111.601L264.677 107.749C264.46 107.301 264.29 106.829 264.166 106.334C264.043 105.839 263.98 105.344 263.98 104.849C263.98 104.432 264.05 103.991 264.19 103.527C264.329 103.063 264.53 102.637 264.793 102.25C265.056 101.863 265.373 101.546 265.744 101.299C266.131 101.036 266.572 100.905 267.067 100.905C267.547 100.905 267.948 101.052 268.274 101.345C268.614 101.639 268.784 102.049 268.784 102.575C268.784 102.854 268.738 103.132 268.645 103.411C268.552 103.689 268.435 103.968 268.297 104.246C268.157 104.525 268.003 104.795 267.833 105.058C267.663 105.306 267.5 105.537 267.345 105.754C267.717 106.28 268.118 106.736 268.552 107.123C268.985 107.509 269.41 107.873 269.828 108.213C270.246 108.554 270.648 108.894 271.034 109.234C271.421 109.575 271.754 109.962 272.032 110.395C272.326 110.828 272.559 111.33 272.729 111.903C272.914 112.475 273.007 113.171 273.007 113.992ZM267.74 102.993C267.74 102.776 267.663 102.614 267.507 102.506C267.369 102.397 267.206 102.343 267.02 102.343C266.757 102.343 266.572 102.436 266.463 102.621C266.355 102.792 266.301 102.985 266.301 103.201C266.301 103.511 266.348 103.812 266.44 104.107C266.549 104.401 266.68 104.679 266.835 104.942C266.897 104.833 266.974 104.695 267.067 104.525C267.175 104.354 267.276 104.176 267.368 103.991C267.477 103.789 267.562 103.604 267.624 103.434C267.701 103.248 267.74 103.101 267.74 102.993Z" fill="white"/>
</g>
<defs>
<clipPath id="clip0_1096_7735">
<rect width="273.246" height="124" fill="white"/>
</clipPath>
</defs>
</svg>
